<?xml version="1.0" encoding="utf-8"?>
<!-- Generator: Adobe Illustrator 26.3.1, SVG Export Plug-In . SVG Version: 6.00 Build 0)  -->
<svg version="1.1" id="Layer_1" xmlns="http://www.w3.org/2000/svg" xmlns:xlink="http://www.w3.org/1999/xlink" x="0px" y="0px"
	 viewBox="0 0 16 16" style="enable-background:new 0 0 16 16;" xml:space="preserve">
<style type="text/css">
	.st0{fill:#FFFFFF;}
</style>
<path class="st0" d="M8.9,0.7c-0.2-1-1.6-1-1.9,0L7,1C6.9,1.5,6.3,1.8,5.8,1.7c-0.2,0-0.3-0.1-0.5-0.3L5.2,1.2
	c-0.7-0.7-1.9,0-1.6,0.9l0.1,0.3C3.8,3,3.5,3.5,3,3.6c-0.2,0-0.4,0-0.5,0L2.2,3.6c-1-0.3-1.6,0.9-0.9,1.6l0.2,0.2
	c0.4,0.4,0.4,1,0,1.4C1.3,6.9,1.2,7,1,7L0.7,7.1c-1,0.2-1,1.6,0,1.9L1,9c0.5,0.1,0.8,0.6,0.7,1.2c0,0.2-0.1,0.3-0.3,0.5l-0.2,0.2
	c-0.7,0.7,0,1.9,0.9,1.6l0.3-0.1c0.5-0.1,1,0.1,1.2,0.7c0,0.2,0,0.4,0,0.5l-0.1,0.3c-0.3,1,0.9,1.6,1.6,0.9l0.2-0.2
	c0.4-0.4,1-0.4,1.4,0C6.9,14.7,7,14.8,7,15l0.1,0.3c0.2,1,1.6,1,1.9,0L9,15c0.1-0.5,0.6-0.8,1.2-0.7c0.2,0,0.3,0.1,0.5,0.3l0.2,0.2
	c0.7,0.7,1.9,0,1.6-0.9l-0.1-0.3c-0.1-0.5,0.1-1,0.7-1.2c0.2,0,0.4,0,0.5,0l0.3,0.1c1,0.3,1.6-0.9,0.9-1.6l-0.2-0.2
	c-0.4-0.4-0.4-1,0-1.4C14.7,9.1,14.8,9,15,9l0.3-0.1c1-0.2,1-1.6,0-1.9L15,7c-0.5-0.1-0.8-0.6-0.7-1.2c0-0.2,0.1-0.3,0.3-0.5
	l0.2-0.2c0.7-0.7,0-1.9-0.9-1.6l-0.3,0.1c-0.5,0.1-1-0.1-1.2-0.7c0-0.2,0-0.4,0-0.5l0.1-0.3c0.3-1-0.9-1.6-1.6-0.9l-0.2,0.2
	c-0.4,0.4-1,0.4-1.4,0C9.1,1.3,9,1.2,9,1L8.9,0.7z M8,13c-2.8,0-5-2.2-5.1-4.9S5.1,3,7.9,3C7.9,3,8,3,8,3c2.8,0,5,2.2,5,5
	S10.8,13,8,13L8,13z"/>
</svg>
