<?xml version="1.0" encoding="utf-8"?>
<!-- Generator: Adobe Illustrator 26.3.1, SVG Export Plug-In . SVG Version: 6.00 Build 0)  -->
<svg version="1.1" id="Layer_1" xmlns="http://www.w3.org/2000/svg" xmlns:xlink="http://www.w3.org/1999/xlink" x="0px" y="0px"
	 viewBox="0 0 16 16" style="enable-background:new 0 0 16 16;" xml:space="preserve">
<style type="text/css">
	.st0{fill-rule:evenodd;clip-rule:evenodd;fill:#FFFFFF;}
</style>
<path class="st0" d="M0,0.5C0,0.2,0.2,0,0.5,0h2C2.8,0,3,0.2,3,0.5S2.8,1,2.5,1h-2C0.2,1,0,0.8,0,0.5z M4,0.5C4,0.2,4.2,0,4.5,0h10
	C14.8,0,15,0.2,15,0.5S14.8,1,14.5,1h-10C4.2,1,4,0.8,4,0.5z M0,2.5C0,2.2,0.2,2,0.5,2h2C2.8,2,3,2.2,3,2.5S2.8,3,2.5,3h-2
	C0.2,3,0,2.8,0,2.5z M4,2.5C4,2.2,4.2,2,4.5,2h9C13.8,2,14,2.2,14,2.5S13.8,3,13.5,3h-9C4.2,3,4,2.8,4,2.5z M0,4.5
	C0,4.2,0.2,4,0.5,4h2C2.8,4,3,4.2,3,4.5S2.8,5,2.5,5h-2C0.2,5,0,4.8,0,4.5z M4,4.5C4,4.2,4.2,4,4.5,4h11C15.8,4,16,4.2,16,4.5
	S15.8,5,15.5,5h-11C4.2,5,4,4.8,4,4.5z M0,6.5C0,6.2,0.2,6,0.5,6h2C2.8,6,3,6.2,3,6.5S2.8,7,2.5,7h-2C0.2,7,0,6.8,0,6.5z M4,6.5
	C4,6.2,4.2,6,4.5,6h8C12.8,6,13,6.2,13,6.5S12.8,7,12.5,7h-8C4.2,7,4,6.8,4,6.5z M0,8.5C0,8.2,0.2,8,0.5,8h2C2.8,8,3,8.2,3,8.5
	S2.8,9,2.5,9h-2C0.2,9,0,8.8,0,8.5z M4,8.5C4,8.2,4.2,8,4.5,8h8C12.8,8,13,8.2,13,8.5S12.8,9,12.5,9h-8C4.2,9,4,8.8,4,8.5z M0,10.5
	C0,10.2,0.2,10,0.5,10h2C2.8,10,3,10.2,3,10.5S2.8,11,2.5,11h-2C0.2,11,0,10.8,0,10.5z M4,10.5C4,10.2,4.2,10,4.5,10h10
	c0.3,0,0.5,0.2,0.5,0.5S14.8,11,14.5,11h-10C4.2,11,4,10.8,4,10.5z M0,12.5C0,12.2,0.2,12,0.5,12h2C2.8,12,3,12.2,3,12.5
	S2.8,13,2.5,13h-2C0.2,13,0,12.8,0,12.5z M4,12.5C4,12.2,4.2,12,4.5,12h6c0.3,0,0.5,0.2,0.5,0.5S10.8,13,10.5,13h-6
	C4.2,13,4,12.8,4,12.5z M0,14.5C0,14.2,0.2,14,0.5,14h2C2.8,14,3,14.2,3,14.5S2.8,15,2.5,15h-2C0.2,15,0,14.8,0,14.5z M4,14.5
	C4,14.2,4.2,14,4.5,14h11c0.3,0,0.5,0.2,0.5,0.5S15.8,15,15.5,15h-11C4.2,15,4,14.8,4,14.5z"/>
</svg>
