<?xml version="1.0" encoding="utf-8"?>
<!-- Generator: Adobe Illustrator 26.3.1, SVG Export Plug-In . SVG Version: 6.00 Build 0)  -->
<svg version="1.1" id="Layer_1" xmlns="http://www.w3.org/2000/svg" xmlns:xlink="http://www.w3.org/1999/xlink" x="0px" y="0px"
	 viewBox="0 0 16 16" style="enable-background:new 0 0 16 16;" xml:space="preserve">
<style type="text/css">
	.st0{fill-rule:evenodd;clip-rule:evenodd;fill:#FFFFFF;}
</style>
<path class="st0" d="M1,8c0-3.9,3.1-7,7-7c3.9,0,7,3.1,7,7c0,3.9-3.1,7-7,7c-1.5,0-2.9-0.5-4.1-1.3c-0.2-0.1-0.2-0.4,0-0.6l1.8-1.8
	c1.4,1,3.3,0.9,4.6-0.3l1.4-1.4c0.2-0.2,0.2-0.5,0-0.7L11,8.1l1.6-1.6c0.2-0.2,0.2-0.5,0-0.7c-0.2-0.2-0.5-0.2-0.7,0c0,0,0,0,0,0
	l-1.6,1.6L8.9,6l1.6-1.6c0.2-0.2,0.2-0.5,0-0.7s-0.5-0.2-0.7,0c0,0,0,0,0,0L8.1,5.3L7.4,4.6c-0.2-0.2-0.5-0.2-0.7,0L5.3,6
	C4.1,7.2,3.9,9.2,5,10.5l-1.8,1.8c-0.6,0.6-0.6,1.6,0.1,2.1c3.6,2.6,8.6,1.8,11.2-1.8s1.8-8.6-1.8-11.2S4.1-0.3,1.5,3.3
	C0.5,4.7,0,6.3,0,8c0,0.3,0.2,0.5,0.5,0.5S1,8.3,1,8z"/>
</svg>
