<?xml version="1.0" encoding="utf-8"?>
<!-- Generator: Adobe Illustrator 26.3.1, SVG Export Plug-In . SVG Version: 6.00 Build 0)  -->
<svg version="1.1" id="Layer_1" xmlns="http://www.w3.org/2000/svg" xmlns:xlink="http://www.w3.org/1999/xlink" x="0px" y="0px"
	 viewBox="0 0 16 16" style="enable-background:new 0 0 16 16;" xml:space="preserve">
<style type="text/css">
	.st0{fill-rule:evenodd;clip-rule:evenodd;fill:#F04D57;}
	.st1{fill-rule:evenodd;clip-rule:evenodd;fill:#F04D57;stroke:#F04D57;stroke-miterlimit:10;}
</style>
<path class="st0" d="M1.1,8.1c0-3.8,3-6.8,6.8-6.8s6.8,3,6.8,6.8s-3,6.8-6.8,6.8c-1.5,0-2.8-0.5-4-1.3c-0.2-0.1-0.2-0.4,0-0.6
	l1.8-1.8c1.4,1,3.2,0.9,4.5-0.3l1.4-1.4c0.2-0.2,0.2-0.5,0-0.7L10.9,8l1.6-1.6c0.2-0.2,0.2-0.5,0-0.7s-0.5-0.2-0.7,0l-1.6,1.6
	L8.9,6.1l1.6-1.6c0.2-0.2,0.2-0.5,0-0.7s-0.5-0.2-0.7,0L8.1,5.4L7.4,4.8c-0.2-0.2-0.5-0.2-0.7,0L5.3,6.1C4.2,7.3,4,9.3,5.1,10.5
	l-1.8,1.8c-0.6,0.6-0.6,1.6,0.1,2.1c3.5,2.5,8.4,1.8,11-1.8s1.8-8.4-1.8-11S4.2,0,1.6,3.5c-1,1.4-1.5,2.9-1.5,4.6
	c0,0.3,0.2,0.5,0.5,0.5S1.1,8.4,1.1,8.1z"/>
<path class="st1" d="M14.8,15.1C10.3,10.4,5.8,5.7,1.3,1"/>
</svg>
