<?xml version="1.0" encoding="utf-8"?>
<!-- Generator: Adobe Illustrator 26.3.1, SVG Export Plug-In . SVG Version: 6.00 Build 0)  -->
<svg version="1.1" id="Layer_1" xmlns="http://www.w3.org/2000/svg" xmlns:xlink="http://www.w3.org/1999/xlink" x="0px" y="0px"
	 viewBox="0 0 16 16" style="enable-background:new 0 0 16 16;" xml:space="preserve">
<style type="text/css">
	.st0{fill:#FFFFFF;}
</style>
<path class="st0" d="M3.5,13.2L13,3.6c0.1-0.1,0.1-0.4,0-0.5s-0.4-0.1-0.5,0L3,12.6c-0.1,0.1-0.1,0.4,0,0.5
	C3.1,13.3,3.3,13.3,3.5,13.2L3.5,13.2z M4.8,2.9c0.2,0,0.4,0.2,0.4,0.4v1.5h1.5C6.9,4.8,7,4.9,7,5.1S6.8,5.4,6.6,5.4H5.2l0,1.4
	c0,0.2-0.3,0.5-0.5,0.5S4.4,7.1,4.4,6.9V5.4H2.9c-0.2,0-0.3-0.1-0.3-0.3s0.1-0.4,0.3-0.4h1.5V3.2C4.4,3,4.6,2.9,4.8,2.9z M8.7,11.1
	c0-0.2,0.2-0.4,0.4-0.4h3.7c0.2,0,0.4,0.2,0.4,0.4s-0.2,0.4-0.4,0.4H9.1C8.9,11.4,8.7,11.3,8.7,11.1z"/>
<path class="st0" d="M14,1c0.6,0,1,0.4,1,1v12c0,0.6-0.4,1-1,1H2c-0.6,0-1-0.4-1-1V2c0-0.6,0.4-1,1-1H14z M2,0C0.9,0,0,0.9,0,2v12
	c0,1.1,0.9,2,2,2h12c1.1,0,2-0.9,2-2V2c0-1.1-0.9-2-2-2H2z"/>
</svg>
