<?xml version="1.0" encoding="utf-8"?>
<!-- Generator: Adobe Illustrator 26.3.1, SVG Export Plug-In . SVG Version: 6.00 Build 0)  -->
<svg version="1.1" id="Layer_1" xmlns="http://www.w3.org/2000/svg" xmlns:xlink="http://www.w3.org/1999/xlink" x="0px" y="0px"
	 viewBox="0 0 16 16" style="enable-background:new 0 0 16 16;" xml:space="preserve">
<style type="text/css">
	.st0{fill:#FFFFFF;}
</style>
<path class="st0" d="M3,4.5h10c1.1,0,2,0.9,2,2v3c0,1.1-0.9,2-2,2H3c-1.1,0-2-0.9-2-2v-3C1,5.4,1.9,4.5,3,4.5z M3,5.5
	c-0.6,0-1,0.4-1,1v3c0,0.6,0.4,1,1,1h10c0.6,0,1-0.4,1-1v-3c0-0.6-0.4-1-1-1H3z M1,2c0-0.3,0.2-0.5,0.5-0.5h13C14.8,1.5,15,1.7,15,2
	s-0.2,0.5-0.5,0.5h-13C1.2,2.5,1,2.3,1,2z M1,14c0-0.3,0.2-0.5,0.5-0.5h13c0.3,0,0.5,0.2,0.5,0.5s-0.2,0.5-0.5,0.5h-13
	C1.2,14.5,1,14.3,1,14z"/>
</svg>
